/* XPM */
static char * bitcoin16_xpm[] = {
"16 16 18 1",
" 	c None",
".	c #11BEF3",
"+	c #13BFF3",
"@	c #12BFF3",
"#	c #0EBDF2",
"$	c #0DBDF3",
"%	c #16BFF3",
"&	c #17C0F3",
"*	c #22C3F4",
"=	c #0CBDF3",
"-	c #0DBDF2",
";	c #0EBDF3",
">	c #0ABCF2",
",	c #0BBDF2",
"'	c #0CBDF2",
")	c #0ABCF3",
"!	c #16C0F3",
"~	c #14BFF3",
"       .        ",
"    +      @    ",
"  .          .  ",
" #            . ",
" $              ",
"                ",
"                ",
"%              &",
"                ",
"                ",
"      *        =",
"                ",
" -            $ ",
"  ;          >  ",
"   ,        '   ",
"     )!  ~;     "};
