/* XPM */
static char * bitcoin64_xpm[] = {
"64 64 166 2",
"  	c None",
". 	c #09BCF2",
"+ 	c #0FBEF3",
"@ 	c #11BFF3",
"# 	c #12BEF3",
"$ 	c #04BAF2",
"% 	c #00B9F2",
"& 	c #0BBCF3",
"* 	c #08BCF2",
"= 	c #04BBF2",
"- 	c #10BEF3",
"; 	c #0CBEF3",
"> 	c #0CBDF3",
", 	c #15BFF3",
"' 	c #36C8F5",
") 	c #16BFF3",
"! 	c #03BBF2",
"~ 	c #14BFF3",
"{ 	c #1AC0F3",
"] 	c #21C3F4",
"^ 	c #1CC1F3",
"/ 	c #0CBDF2",
"( 	c #0EBEF3",
"_ 	c #11BEF3",
": 	c #00BAF2",
"< 	c #0DBDF3",
"[ 	c #2AC5F4",
"} 	c #20C3F3",
"| 	c #18C0F3",
"1 	c #18C1F3",
"2 	c #2EC6F5",
"3 	c #2DC6F4",
"4 	c #2CC6F4",
"5 	c #07BBF3",
"6 	c #01BAF2",
"7 	c #26C4F4",
"8 	c #30C7F4",
"9 	c #06BBF2",
"0 	c #28C5F4",
"a 	c #2BC6F4",
"b 	c #35C9F5",
"c 	c #37C9F5",
"d 	c #32C7F5",
"e 	c #05BBF2",
"f 	c #30C7F5",
"g 	c #0BBDF3",
"h 	c #1AC1F3",
"i 	c #22C3F4",
"j 	c #26C5F4",
"k 	c #1FC2F3",
"l 	c #0FBEF2",
"m 	c #2EC6F4",
"n 	c #1DC1F3",
"o 	c #39C9F5",
"p 	c #1FC3F4",
"q 	c #16C0F3",
"r 	c #0EBDF3",
"s 	c #00B8F2",
"t 	c #24C3F4",
"u 	c #2FC6F4",
"v 	c #2AC6F4",
"w 	c #26C3F4",
"x 	c #2FC7F5",
"y 	c #2EC7F5",
"z 	c #31C7F5",
"A 	c #2FC7F4",
"B 	c #13BFF3",
"C 	c #1DC2F4",
"D 	c #23C4F4",
"E 	c #1CC2F4",
"F 	c #31C7F4",
"G 	c #33C8F5",
"H 	c #35C8F5",
"I 	c #27C5F4",
"J 	c #32C7F4",
"K 	c #3FCBF5",
"L 	c #0FBDF3",
"M 	c #15C0F3",
"N 	c #1DC1F4",
"O 	c #29C5F4",
"P 	c #0ABDF3",
"Q 	c #1FC2F4",
"R 	c #27C4F4",
"S 	c #28C4F4",
"T 	c #23C3F4",
"U 	c #02BAF2",
"V 	c #24C4F4",
"W 	c #17C0F3",
"X 	c #25C3F4",
"Y 	c #25C4F4",
"Z 	c #03BAF2",
"` 	c #2AC6F5",
" .	c #20C2F4",
"..	c #1DC2F3",
"+.	c #36C9F5",
"@.	c #29C4F4",
"#.	c #2BC5F4",
"$.	c #28C4F5",
"%.	c #19C1F3",
"&.	c #1EC3F3",
"*.	c #1AC1F4",
"=.	c #1CC0F4",
"-.	c #25C4F3",
";.	c #32C8F5",
">.	c #3DCAF5",
",.	c #1EC1F3",
"'.	c #1BC1F3",
").	c #17BFF3",
"!.	c #1CC2F3",
"~.	c #1BC1F4",
"{.	c #1EC2F3",
"].	c #1EC2F4",
"^.	c #20C3F4",
"/.	c #38C9F5",
"(.	c #3FCCF6",
"_.	c #3CCAF5",
":.	c #07BCF2",
"<.	c #21C3F3",
"[.	c #20C2F3",
"}.	c #2DC7F4",
"|.	c #39CAF5",
"1.	c #3DCBF5",
"2.	c #34C8F4",
"3.	c #2EC7F4",
"4.	c #10BDF3",
"5.	c #0BBDF2",
"6.	c #2AC4F4",
"7.	c #2BC6F5",
"8.	c #22C3F3",
"9.	c #1FC3F3",
"0.	c #2AC5F5",
"a.	c #26C4F5",
"b.	c #12BFF3",
"c.	c #3ECBF5",
"d.	c #21C4F4",
"e.	c #2DC6F5",
"f.	c #0DBDF2",
"g.	c #34C9F5",
"h.	c #07BCF3",
"i.	c #23C3F3",
"j.	c #08BCF3",
"k.	c #31C8F5",
"l.	c #28C6F4",
"m.	c #33C7F4",
"n.	c #27C5F5",
"o.	c #33C8F4",
"p.	c #12BEF2",
"q.	c #42CCF5",
"r.	c #3CCBF5",
"s.	c #2CC4F4",
"t.	c #21C2F4",
"u.	c #1EC1F4",
"v.	c #0ABCF2",
"w.	c #36C9F4",
"x.	c #09BDF2",
"y.	c #34C8F5",
"z.	c #19C0F3",
"A.	c #0ABCF3",
"B.	c #06BCF2",
"C.	c #07BBF2",
"D.	c #2FC6F5",
"E.	c #1FC1F4",
"F.	c #05BCF2",
"G.	c #30C6F5",
"H.	c #0ABDF2",
"I.	c #13C0F3",
"                                                            . + + .                                                             ",
"                                                    @ # $ % % & * % % = # @                                                     ",
"                                            - ; = % % > ,       '     ) + % % ! > ~                                             ",
"                                    - + = % % - {             ]               ^ / % % $ ( -                                     ",
"                                _ % : < ,                     [   }                   | - : % _                                 ",
"                              > % 1 2                         3   4                         - % /                               ",
"                            5 6       7                       7                             8   6 9                             ",
"                          % 6           0                     a     b                     c 1     6 :                           ",
"                        ! =               d                                                 0       e !                         ",
"                    f % g       h                                     i                 j             < % 3                     ",
"                  k % l         b                           4         m                 [               l % n                   ",
"                , % ~           a                 o         p                             3               q % ,                 ",
"              r s t             [                   ]       u           v             t   [                 w s r               ",
"            9 : x               y                     i     4           i             3   z                   A % 9             ",
"          B % C                                         0   7                             D                     E % ~           ",
"          % |     F a                                     7               G         H     ]               I J   K L %           ",
"        M %   I           3 f N                             E                             0       d O         3     % q         ",
"        P -                   q   2 F                                       Q     Q       t 0               7       _ P         ",
"        %       m             8           i R                     m         S     ^ T                     O           %         ",
"      , U         0           d                   V f     W         X     A 4 W         x               Y             6 ,       ",
"      Z W           `         x                           i       H  ...      +.O       i             @.              | Z       ",
"      %                       #.                        $.%.Y     ] c   i               4                               %       ",
"    # .               0                         &.A i                     h O *.        8                               . #     ",
"    % =.                -.              D ;.V             y                 >.  i k ;.  x     0                         ,.%     ",
"  B %                           p m i                                         4 E       ..O '.[                           % ~   ",
"  * ).                  !.~.{.                                              p     h       7       !.2 ].                  ).*   ",
"  %             ^./.^.      i                                               j     + (.  ]                 ] _.Q             %   ",
"B :.    ] x <.              ^.                          '.                          0 ~                           [.}. .    9 B ",
"6 h {.                        Y                         H                 |.        V   a                                 A ) 6 ",
"e L [                       F   T                       f                 <.          1.  V                           y 2.  W e ",
"- _     {.                  q                           3.              T             h     D               ^.4 v           4.- ",
"5.,       4 Y                     4                     m               d   G         D       6.    ^ 0 A                   | > ",
"- U           7.Y                   R                                     #.          O     V [ , [                         = - ",
"M %               [ [     M                                           z T             Y k                                   % M ",
"  %                   8.  o           a                               _     ] u 3       7             F                     %   ",
"  %                       Q             D             %.            _ f 9.                              ].                  %   ",
"  %                       y   m           3           J     O 0 O ]./.              !.    3               V                 %   ",
"  6 )                     0.      8                 t {.a.                          y                       i             ).6   ",
"  b./                     k           A     W c.d.    b           }                 e.      4                 i           f.b.  ",
"  b.|                               i   @ #.  ]       O   0       Y                 G       R                   g.        W b.  ",
"  < h.                    ] 7 H Q             i.        0                           7                                     j.>   ",
"  b.:               R k.B                       ~ x    .        O                             O                           : b.  ",
"    %       V }.        l.                        m.- I         Y                             n.                        [ %     ",
"    % | 7 o o.m 8 8 8 8 ] m a a a a a a a a a a p.V @ q.I 5.4 | H 8 8 8 8 8 8 8 A h |.+.+.+.+.r.| 8 8 8 8 8 8 8 8 8 8 8 N %     ",
"    L !                                             ..      R ~.                  M             2.                      = L     ",
"      Z -               H                             0         ]                 F                                   - Z       ",
"      X % s.            Y                 4         O       0.      [             G               ].                @.% X       ",
"        + 6                             m           G   v   Y           j         d               O                 6 +         ",
"          e /                         t             C     4                 f     [                               r e           ",
"            % t.                    T                     Y                     2.[                 G           u.%             ",
"            + 6       k           -.                      O                       v.w.              '.          6 +             ",
"              = x.    y.        d                             T                         O             T       5.!               ",
"                % *.  3.                          I     e.      ^.              L           i         G     z.%                 ",
"                B :   ;.                          G                             Y             V ..          : B                 ",
"                  A.B.  1.                        y   ^.          t             c                 Y D   F * A.                  ",
"                    % <                           H   [             t           m                     a C.%                     ",
"                    #.: 6 -                       ^.                            3.                  + U : #.                    ",
"                        | : ! N                     F                 D.        0               =.= : |                         ",
"                            ~ : = E.                Y                   0.                  E.! : z.                            ",
"                                , % F.            /.                                      F.% ,                                 ",
"                                    _ % :.      n.                        G.          C.% _                                     ",
"                                        ( % <   J                           4 [.  > % (                                         ",
"                                            < % 6 W # # # # # # # # # # # # f.H.% <                                             ",
"                                              I.( - - - - - - - - - - - - - - ( I.                                              "};
