/* XPM */
static char * bitcoin32_xpm[] = {
"32 32 56 1",
" 	c None",
".	c #07BBF2",
"+	c #05BBF2",
"@	c #08BCF2",
"#	c #0CBDF3",
"$	c #0ABCF3",
"%	c #0ABCF2",
"&	c #0BBCF3",
"*	c #0EBDF3",
"=	c #0BBDF2",
"-	c #09BCF2",
";	c #06BBF2",
">	c #11BEF3",
",	c #05BBF3",
"'	c #10BEF3",
")	c #29C5F4",
"!	c #0FBDF3",
"~	c #1AC0F4",
"{	c #1AC0F3",
"]	c #08BBF2",
"^	c #16BFF3",
"/	c #0ABDF3",
"(	c #1FC2F4",
"_	c #0BBDF3",
":	c #05BAF2",
"<	c #04BAF2",
"[	c #26C4F4",
"}	c #2CC6F4",
"|	c #0CBCF2",
"1	c #15BFF3",
"2	c #22C3F4",
"3	c #14BEF3",
"4	c #24C4F4",
"5	c #27C5F4",
"6	c #26C5F4",
"7	c #12BEF3",
"8	c #25C4F4",
"9	c #2CC6F5",
"0	c #19C0F4",
"a	c #26C4F3",
"b	c #04BBF2",
"c	c #2AC5F4",
"d	c #08BCF3",
"e	c #2DC6F4",
"f	c #25C4F3",
"g	c #1DC2F4",
"h	c #30C7F4",
"i	c #36C9F5",
"j	c #09BCF3",
"k	c #0CBDF2",
"l	c #0CBCF3",
"m	c #0BBCF2",
"n	c #07BCF2",
"o	c #0DBDF3",
"p	c #0DBCF3",
"q	c #08BBF3",
"              ..+@              ",
"          #$%&    *=-&          ",
"        ;>             ;        ",
"       ,                ;       ",
"      @                  -      ",
"    '%                )   =!    ",
"   @~                      {]   ",
"  !^                        {'  ",
"  /    (                     _  ",
"  :                          <  ",
" ]            ( )[            ] ",
" &                 }          | ",
" 1    2               [       3 ",
"%      4             5         %",
"%                    6         =",
"7                              7",
";                    8         ;",
";     9          0             .",
"+            a                 b",
"         } c                    ",
" d                              ",
" -e}e 6     fg  h      i      * ",
" -           )                % ",
"  $                          j  ",
"   k                        l   ",
"   @                        @   ",
"    d                      @    ",
"     +                    m     ",
"      @                  n      ",
"       o&              &'       ",
"         o$          $p         ",
"           d#>>>>>>kq           "};
