<?xml version="1.0" encoding="UTF-8" standalone="no"?>
<!-- Created with Inkscape (http://www.inkscape.org/) -->

<svg
   xmlns:dc="http://purl.org/dc/elements/1.1/"
   xmlns:cc="http://creativecommons.org/ns#"
   xmlns:rdf="http://www.w3.org/1999/02/22-rdf-syntax-ns#"
   xmlns:svg="http://www.w3.org/2000/svg"
   xmlns="http://www.w3.org/2000/svg"
   xmlns:sodipodi="http://sodipodi.sourceforge.net/DTD/sodipodi-0.dtd"
   xmlns:inkscape="http://www.inkscape.org/namespaces/inkscape"
   version="1.1"
   id="svg2"
   xml:space="preserve"
   width="907.08667"
   height="907.08667"
   viewBox="0 0 907.08667 907.08667"
   sodipodi:docname="tbc-symbol.in.svg"
   inkscape:version="0.92.2 5c3e80d, 2017-08-06"><metadata
     id="metadata8"><rdf:RDF><cc:Work
         rdf:about=""><dc:format>image/svg+xml</dc:format><dc:type
           rdf:resource="http://purl.org/dc/dcmitype/StillImage" /><dc:title></dc:title></cc:Work></rdf:RDF></metadata><defs
     id="defs6" /><sodipodi:namedview
     pagecolor="#ffffff"
     bordercolor="#666666"
     borderopacity="1"
     objecttolerance="10"
     gridtolerance="10"
     guidetolerance="10"
     inkscape:pageopacity="0"
     inkscape:pageshadow="2"
     inkscape:window-width="1000"
     inkscape:window-height="700"
     id="namedview4"
     showgrid="false"
     inkscape:zoom="0.2601736"
     inkscape:cx="228.15911"
     inkscape:cy="453.54333"
     inkscape:window-x="0"
     inkscape:window-y="0"
     inkscape:window-maximized="0"
     inkscape:current-layer="g10" /><g
     id="g10"
     inkscape:groupmode="layer"
     inkscape:label="tbc-symbol"
     transform="matrix(1.3333333,0,0,-1.3333333,0,907.08667)"><path
       inkscape:connector-curvature="0"
       id="path14"
       style="fill:#00ba9a;fill-opacity:1;fill-rule:nonzero;stroke:none"
       d="m 630.6008,234.8856 -119.11,105.527 135.996,33.519 z m -82.131,-123.921 -42.839,112.967 h 120.814 z m -130.309,-71.557 14.562,119.935 106.979,-56.145 z m -284.031,65.093 134.813,119.431 h 8.543 l 4.859,-7.038 -21.709,-178.788 z m -84.26,119.431 h 88.93 l -13.302,-109.567 z m -20.704,147.217 119.873,-62.912 -6.639,-54.642 -96.082,-23.681 z m 50.086,139.971 68.633,-99.428 -117.307,-28.913 z m 106.309,97.923 -13.306,-109.563 -86.346,21.282 z m 404.845,-88.281 -117.305,-28.915 14.561,119.935 z m -130.179,-134.935 1.029,8.481 26.303,23.303 159.917,-39.417 0.038,-0.099 -139.693,-34.432 z m -125.68,-170.396 3.218,8.501 h 98.739 l -7.076,-58.298 z m -18.156,-47.864 90.396,-130.961 h -140.065 z m -30.592,44.319 27.804,-40.281 -48.094,-126.818 z m -2.599,12.046 -0.125,-0.997 -0.689,0.997 z m 0.889,13.423 0.696,-0.365 -1.099,-9.02 h -4.087 l -2.315,3.354 z m -131.227,68.873 64.894,-34.06 -71.164,-17.537 z m 159.108,154.66 -1.092,-9.023 -144.664,-35.655 9.502,78.261 z m -118.8,154.896 1.094,0.269 123.287,-109.219 -5.088,-41.911 -136.26,33.584 13.909,114.567 z m 124.973,-104.081 -119.116,105.524 135.999,33.519 z m 87.839,-36.395 -36.583,-9.019 -47.587,42.161 17.341,142.824 0.104,-0.025 z m 25.156,6.197 -21.208,-5.224 -65.913,173.794 138.138,-34.047 z m 37.771,9.31 -33.01,-8.136 47.107,124.214 z m -4.142,-67.588 18.03,-4.445 -20.811,-18.434 z m -40.038,14.024 -3.031,7.993 12.456,32.851 34.234,8.435 -7.076,-58.294 z m 32.704,-40.938 -4.525,-4.007 -16.765,14.858 -9.676,25.503 34.351,-8.467 z m -1.084,-42.429 3.288,27.074 43.422,-38.47 -38.765,-9.554 z m -3.392,-27.897 8.828,2.175 38.001,-100.192 h -58.729 z m -84.371,-20.798 80.186,19.765 -11.782,-96.984 h -97.689 z m -57.93,-77.219 -21.527,11.3 0.341,2.852 68.14,60.364 6.214,1.528 -28.84,-76.044 z m 7.688,-4.038 h 15.104 l -2.502,-6.61 z m -31.078,0 h 22.396 l 19.838,-10.412 -14.159,-37.331 -28.805,41.737 z m 1.341,11.052 13.367,-7.014 h -14.222 z m -41.622,40.236 43.749,10.781 -5.081,-41.873 -2.155,-1.908 -21.534,11.306 z m -4.185,-1.036 11.477,-16.623 -25.226,13.238 z m 48.456,16.102 -46.718,-11.514 -80.798,117.054 1.953,16.099 144.664,35.655 z m 57.923,10.12 -58.973,-52.243 4.72,38.87 z m 16.911,9.596 -0.528,-1.403 -1.453,-0.359 z m -27.929,144.432 53.391,-13.162 18.211,-16.13 -40.594,-107.021 -13.491,-11.959 -60.231,-14.843 19.102,157.294 z m -8.432,2.078 -14.659,-3.614 0.848,7.017 z m 8.432,2.079 -21.749,5.359 4.81,39.634 43.416,-38.467 z m 46.892,-11.56 -38.467,9.481 21.722,5.353 z m 32.329,-1.787 -2.141,-5.654 -21.757,5.363 -20.415,18.086 34.359,8.467 z m 2.161,5.69 -8.174,21.545 18.031,4.441 z m -0.354,-12.317 0.354,0.938 0.424,-1.129 z m -4.671,-12.3 3.225,8.501 3.969,-0.976 7.931,-20.919 z m -3.226,2.86 -11.309,10.017 13.812,-3.403 z m 30.057,-47.117 -65.68,-58.183 37.32,98.405 19.734,-17.478 z m 3.225,2.864 -5.352,14.121 10.649,-9.432 z m 7.646,-31.54 -2.933,-24.148 -78.964,-19.462 2.266,5.984 70.289,62.267 z m 8.126,-21.423 -6.868,-1.689 1.821,14.993 z m -4.393,57.652 0.751,0.66 -0.146,-1.196 z m 0.014,-5.402 -2.698,-22.208 -7.166,18.886 6.805,6.026 z m -295.689,16.624 -5.755,8.338 6.978,1.72 z m 2.725,-11.049 77.344,-112.049 -16.683,-4.113 -70.288,36.89 z m 431.153,127.654 -107.688,-95.405 -21.208,5.227 7.32,60.304 121.496,29.945 z m -512.764,-0.68 0.847,0.751 89.529,-22.066 -9.745,-80.27 -9.947,-2.451 -71.084,102.983 z m -52.953,-139.621 0.4,1.056 121.499,29.945 9.21,-13.346 -9.988,-82.275 -120.985,63.5 z m 114.92,-149.169 2.711,22.376 77.073,18.997 36.062,-18.928 12.727,-18.441 -4.518,-4.004 z m -4.066,0 h -84.003 l 86.596,21.344 z m -8.604,-121.124 -1.736,2.516 13.913,114.57 h 119.988 z m 144.01,121.124 h -1.203 l 0.744,0.661 z m -7.806,18.41 13.374,-7.02 -5.291,-4.689 z m 145.929,-209.774 h -1.131 l -93.563,135.548 14.973,39.478 95.805,-50.283 -15.086,-124.219 z m 132.221,69.395 -1.001,-0.525 -110.798,58.152 7.326,60.304 h 60.745 l 44.369,-117.002 z m 84.83,122.898 -0.64,-0.929 h -125.131 l -38.369,101.165 40.997,10.104 123.28,-109.216 z m 15.864,153.88 -154.508,38.082 104.839,92.882 z m 17.939,-1.779 -54.364,143.344 -2.196,3.18 -114.754,101.661 -3.42,1.797 -148.848,36.688 h -3.865 l -148.856,-36.688 -3.419,-1.797 -114.755,-101.661 -2.196,-3.18 -54.364,-143.344 -0.466,-3.833 18.483,-152.189 1.369,-3.611 87.09,-126.171 2.891,-2.561 135.746,-71.245 3.754,-0.924 h 153.304 l 3.753,0.924 135.746,71.245 2.892,2.561 87.089,126.171 1.369,3.611 18.483,152.189 z" /></g></svg>